<mxfile host="app.diagrams.net" modified="2021-06-04T05:38:53.653Z" agent="5.0 (Windows NT 10.0; Win64; x64) AppleWebKit/537.36 (KHTML, like Gecko) Chrome/88.0.4324.182 Safari/537.36" etag="NxT7pxKp5ToJpiPHVURn" version="14.7.5" type="github">
  <diagram id="0BGaN9FERBlRCF4JG8cv" name="Page-1">
    <mxGraphModel dx="1204" dy="745" grid="1" gridSize="10" guides="1" tooltips="1" connect="1" arrows="1" fold="1" page="1" pageScale="1" pageWidth="3300" pageHeight="4681" math="0" shadow="0">
      <root>
        <mxCell id="0" />
        <mxCell id="1" parent="0" />
        <mxCell id="prxENJPjgrtAiQwD--T--23" value="" style="edgeStyle=orthogonalEdgeStyle;rounded=0;orthogonalLoop=1;jettySize=auto;html=1;" edge="1" parent="1" source="prxENJPjgrtAiQwD--T--1" target="prxENJPjgrtAiQwD--T--2">
          <mxGeometry relative="1" as="geometry" />
        </mxCell>
        <mxCell id="prxENJPjgrtAiQwD--T--1" value="sub_search_menu(header, data, mode)" style="ellipse;whiteSpace=wrap;html=1;" vertex="1" parent="1">
          <mxGeometry x="530" y="180" width="150" height="120" as="geometry" />
        </mxCell>
        <mxCell id="prxENJPjgrtAiQwD--T--4" value="" style="edgeStyle=orthogonalEdgeStyle;rounded=0;orthogonalLoop=1;jettySize=auto;html=1;" edge="1" parent="1" source="prxENJPjgrtAiQwD--T--2" target="prxENJPjgrtAiQwD--T--3">
          <mxGeometry relative="1" as="geometry" />
        </mxCell>
        <mxCell id="prxENJPjgrtAiQwD--T--2" value="title = &quot;You have chosen &quot; + header + &quot;: &quot;" style="rounded=1;whiteSpace=wrap;html=1;" vertex="1" parent="1">
          <mxGeometry x="490" y="360" width="230" height="40" as="geometry" />
        </mxCell>
        <mxCell id="prxENJPjgrtAiQwD--T--6" value="" style="edgeStyle=orthogonalEdgeStyle;rounded=0;orthogonalLoop=1;jettySize=auto;html=1;" edge="1" parent="1" source="prxENJPjgrtAiQwD--T--3" target="prxENJPjgrtAiQwD--T--5">
          <mxGeometry relative="1" as="geometry" />
        </mxCell>
        <mxCell id="prxENJPjgrtAiQwD--T--3" value="default.print_title(title)" style="rounded=1;whiteSpace=wrap;html=1;" vertex="1" parent="1">
          <mxGeometry x="490" y="480" width="230" height="40" as="geometry" />
        </mxCell>
        <mxCell id="prxENJPjgrtAiQwD--T--20" value="" style="edgeStyle=orthogonalEdgeStyle;rounded=0;orthogonalLoop=1;jettySize=auto;html=1;" edge="1" parent="1" source="prxENJPjgrtAiQwD--T--5" target="prxENJPjgrtAiQwD--T--15">
          <mxGeometry relative="1" as="geometry" />
        </mxCell>
        <mxCell id="prxENJPjgrtAiQwD--T--5" value="PRINT(&quot;Please enter your keyword: &quot;)" style="rounded=1;whiteSpace=wrap;html=1;" vertex="1" parent="1">
          <mxGeometry x="490" y="600" width="230" height="40" as="geometry" />
        </mxCell>
        <mxCell id="prxENJPjgrtAiQwD--T--21" value="" style="edgeStyle=orthogonalEdgeStyle;rounded=0;orthogonalLoop=1;jettySize=auto;html=1;" edge="1" parent="1" source="prxENJPjgrtAiQwD--T--15" target="prxENJPjgrtAiQwD--T--16">
          <mxGeometry relative="1" as="geometry" />
        </mxCell>
        <mxCell id="prxENJPjgrtAiQwD--T--15" value="READ keyword" style="shape=parallelogram;perimeter=parallelogramPerimeter;whiteSpace=wrap;html=1;fixedSize=1;" vertex="1" parent="1">
          <mxGeometry x="491" y="740" width="229" height="50" as="geometry" />
        </mxCell>
        <mxCell id="prxENJPjgrtAiQwD--T--18" value="" style="edgeStyle=orthogonalEdgeStyle;rounded=0;orthogonalLoop=1;jettySize=auto;html=1;" edge="1" parent="1" source="prxENJPjgrtAiQwD--T--16" target="prxENJPjgrtAiQwD--T--17">
          <mxGeometry relative="1" as="geometry" />
        </mxCell>
        <mxCell id="prxENJPjgrtAiQwD--T--16" value="PRINT(&quot;&quot;)" style="rounded=1;whiteSpace=wrap;html=1;" vertex="1" parent="1">
          <mxGeometry x="491" y="870" width="230" height="40" as="geometry" />
        </mxCell>
        <mxCell id="prxENJPjgrtAiQwD--T--22" value="" style="edgeStyle=orthogonalEdgeStyle;rounded=0;orthogonalLoop=1;jettySize=auto;html=1;" edge="1" parent="1" source="prxENJPjgrtAiQwD--T--17" target="prxENJPjgrtAiQwD--T--19">
          <mxGeometry relative="1" as="geometry" />
        </mxCell>
        <mxCell id="prxENJPjgrtAiQwD--T--17" value="sequence = default.search_data(data, keyword, header, mode)" style="rounded=1;whiteSpace=wrap;html=1;" vertex="1" parent="1">
          <mxGeometry x="491" y="990" width="230" height="40" as="geometry" />
        </mxCell>
        <mxCell id="prxENJPjgrtAiQwD--T--19" value="RETURN sequence" style="ellipse;whiteSpace=wrap;html=1;" vertex="1" parent="1">
          <mxGeometry x="561" y="1110" width="90" height="60" as="geometry" />
        </mxCell>
      </root>
    </mxGraphModel>
  </diagram>
</mxfile>
